<svg width="14" height="18" viewBox="0 0 14 18" fill="none" xmlns="http://www.w3.org/2000/svg">
<path d="M13.3735 10.1999C13.3736 10.1947 13.3737 10.1896 13.3737 10.1844C13.3737 9.11497 12.5036 8.24485 11.4341 8.24485H10.9047L13.2258 2.64662C13.6349 1.65881 13.1642 0.522 12.1762 0.112484C11.1881 -0.296757 10.0513 0.174145 9.64209 1.16223L8.19148 4.66413L6.74101 1.16209C6.33163 0.174145 5.19482 -0.296757 4.20687 0.112484C3.21892 0.521863 2.74802 1.65854 3.15726 2.64649L4.4174 5.68888C4.25837 5.78281 4.11404 5.89872 3.98824 6.03248C3.63421 5.6562 3.13241 5.4204 2.57622 5.42026C1.5067 5.42026 0.636719 6.29038 0.636719 7.3599V11.5964C0.636719 15.108 3.49358 17.9649 7.00523 17.9649C10.5167 17.9649 13.3736 15.108 13.3736 11.5964L13.3735 10.1999ZM4.61062 1.08697C5.0612 0.900205 5.57975 1.11513 5.76652 1.56584L7.70424 6.24397C7.78595 6.44103 7.97821 6.56957 8.19148 6.56957C8.40475 6.56957 8.59702 6.44103 8.67873 6.24397L10.6164 1.56584C10.8032 1.11513 11.3218 0.900205 11.7725 1.08684C12.2232 1.27374 12.438 1.7923 12.2513 2.24287L9.7628 8.24485H7.3399L7.34004 7.3599C7.3399 6.30659 6.4956 5.44732 5.44833 5.4215L4.13175 2.24301C3.94498 1.7923 4.1599 1.27374 4.61062 1.08697ZM5.4004 8.24485C5.0818 8.24485 4.78118 8.32258 4.51572 8.45936V7.3599C4.51572 6.87197 4.91261 6.47509 5.4004 6.47509C5.88833 6.47509 6.28521 6.87211 6.28535 7.3599L6.28521 8.24485H5.4004ZM1.69141 7.3599C1.69141 6.87197 2.08829 6.47495 2.57608 6.47495C3.06402 6.47509 3.4609 6.87211 3.46103 7.3599V10.1842C3.4609 10.672 3.06402 11.0689 2.57622 11.0689C2.08843 11.0689 1.69141 10.672 1.69141 10.1842V7.3599ZM7.00523 16.9102C4.18201 16.9102 1.86623 14.6969 1.7013 11.9143C1.96428 12.0478 2.26146 12.1237 2.57622 12.1237C3.13241 12.1237 3.63434 11.8879 3.98838 11.5115C4.34241 11.8879 4.84422 12.1237 5.40054 12.1237H10.0219C10.3132 12.1237 10.5493 11.8877 10.5493 11.5964C10.5493 11.3052 10.3132 11.069 10.0219 11.069H5.40054C4.91274 11.069 4.51572 10.672 4.51572 10.1842C4.51586 9.69643 4.91274 9.29955 5.40054 9.29955H6.81242C6.81256 9.29955 6.81256 9.29955 6.81256 9.29955H6.8127C6.8127 9.29955 6.8127 9.29955 6.81283 9.29955H10.1123C10.1131 9.29955 10.1141 9.29968 10.1149 9.29968C10.1162 9.29968 10.1173 9.29955 10.1185 9.29955H11.4341C11.9201 9.29955 12.3158 9.69313 12.3191 10.1783C12.3189 10.1831 12.3189 10.1881 12.3189 10.193V11.5964C12.3189 14.5264 9.93515 16.9102 7.00523 16.9102Z" fill="#FFBC33"/>
</svg>
