<svg width="14" height="18" viewBox="0 0 14 18"  xmlns="http://www.w3.org/2000/svg">
<path d="M13.3735 10.1999C13.3737 10.1947 13.3738 10.1896 13.3738 10.1844C13.3738 9.11497 12.5037 8.24485 11.4341 8.24485H10.9047L13.2259 2.64662C13.635 1.65881 13.1642 0.522 12.1763 0.112484C11.1882 -0.296757 10.0514 0.174145 9.64214 1.16223L8.19153 4.66413L6.74105 1.16209C6.33168 0.174145 5.19486 -0.296757 4.20692 0.112484C3.21897 0.521863 2.74807 1.65854 3.15731 2.64649L4.41744 5.68888C4.25841 5.78281 4.11408 5.89872 3.98829 6.03248C3.63425 5.6562 3.13245 5.4204 2.57627 5.42026C1.50675 5.42026 0.636765 6.29038 0.636765 7.3599V11.5964C0.636765 15.108 3.49363 17.9649 7.00528 17.9649C10.5168 17.9649 13.3737 15.108 13.3737 11.5964L13.3735 10.1999ZM4.61066 1.08697C5.06124 0.900205 5.5798 1.11513 5.76657 1.56584L7.70428 6.24397C7.78599 6.44103 7.97825 6.56957 8.19153 6.56957C8.4048 6.56957 8.59706 6.44103 8.67877 6.24397L10.6165 1.56584C10.8033 1.11513 11.3218 0.900205 11.7725 1.08684C12.2232 1.27374 12.438 1.7923 12.2514 2.24287L9.76285 8.24485H7.33995L7.34009 7.3599C7.33995 6.30659 6.49565 5.44732 5.44837 5.4215L4.1318 2.24301C3.94503 1.7923 4.15995 1.27374 4.61066 1.08697ZM5.40045 8.24485C5.08184 8.24485 4.78123 8.32258 4.51577 8.45936V7.3599C4.51577 6.87197 4.91265 6.47509 5.40045 6.47509C5.88838 6.47509 6.28526 6.87211 6.2854 7.3599L6.28526 8.24485H5.40045ZM1.69145 7.3599C1.69145 6.87197 2.08834 6.47495 2.57613 6.47495C3.06406 6.47509 3.46094 6.87211 3.46108 7.3599V10.1842C3.46094 10.672 3.06406 11.0689 2.57627 11.0689C2.08847 11.0689 1.69145 10.672 1.69145 10.1842V7.3599ZM7.00528 16.9102C4.18206 16.9102 1.86627 14.6969 1.70134 11.9143C1.96433 12.0478 2.26151 12.1237 2.57627 12.1237C3.13245 12.1237 3.63439 11.8879 3.98843 11.5115C4.34246 11.8879 4.84426 12.1237 5.40058 12.1237H10.022C10.3133 12.1237 10.5493 11.8877 10.5493 11.5964C10.5493 11.3052 10.3133 11.069 10.022 11.069H5.40058C4.91279 11.069 4.51577 10.672 4.51577 10.1842C4.51591 9.69643 4.91279 9.29955 5.40058 9.29955H6.81247C6.8126 9.29955 6.8126 9.29955 6.8126 9.29955H6.81274C6.81274 9.29955 6.81274 9.29955 6.81288 9.29955H10.1124C10.1132 9.29955 10.1141 9.29968 10.115 9.29968C10.1162 9.29968 10.1173 9.29955 10.1185 9.29955H11.4341C11.9202 9.29955 12.3158 9.69313 12.3191 10.1783C12.319 10.1831 12.319 10.1881 12.319 10.193V11.5964C12.319 14.5264 9.9352 16.9102 7.00528 16.9102Z" />
</svg>
