<svg aria-hidden="true" style="position: absolute; width: 0; height: 0; overflow: hidden;" version="1.1" xmlns="http://www.w3.org/2000/svg" xmlns:xlink="http://www.w3.org/1999/xlink">
<defs>
<symbol id="icon-menu" viewBox="0 0 22 16">
<path d="M0 1h22M0 8h22M0 15h22" stroke="#858598"/>
</symbol>
<symbol id="icon-logo" viewBox="0 0 25 32">
<path d="M23.775 18.133c0-0.009 0-0.018 0-0.028 0-1.901-1.547-3.448-3.448-3.448h-0.941l4.126-9.952c0.727-1.756-0.11-3.777-1.866-4.505s-3.778 0.11-4.505 1.866l-2.579 6.226-2.579-6.226c-0.728-1.756-2.749-2.594-4.505-1.866s-2.594 2.749-1.866 4.505l2.24 5.409c-0.283 0.167-0.539 0.373-0.763 0.611-0.629-0.669-1.521-1.088-2.51-1.088-1.901 0-3.448 1.547-3.448 3.448v7.532c0 6.243 5.079 11.322 11.322 11.322s11.322-5.079 11.322-11.322l-0-2.483zM8.197 1.932c0.801-0.332 1.723 0.050 2.055 0.851l3.445 8.317c0.145 0.35 0.487 0.579 0.866 0.579s0.721-0.229 0.866-0.579l3.445-8.317c0.332-0.801 1.254-1.183 2.055-0.852s1.183 1.254 0.851 2.055l-4.424 10.67h-4.307l0-1.573c-0-1.873-1.501-3.4-3.363-3.446l-2.341-5.651c-0.332-0.801 0.050-1.723 0.851-2.055zM9.601 14.658c-0.566 0-1.101 0.138-1.573 0.381v-1.955c0-0.867 0.706-1.573 1.573-1.573s1.573 0.706 1.573 1.573l-0 1.573h-1.573zM3.007 13.084c0-0.867 0.706-1.573 1.573-1.573s1.573 0.706 1.573 1.573v5.021c-0 0.867-0.706 1.573-1.573 1.573s-1.573-0.706-1.573-1.573v-5.021zM12.454 30.063c-5.019 0-9.136-3.935-9.429-8.882 0.468 0.237 0.996 0.372 1.555 0.372 0.989 0 1.881-0.419 2.51-1.088 0.629 0.669 1.521 1.088 2.511 1.088h8.216c0.518 0 0.938-0.42 0.938-0.937s-0.42-0.938-0.938-0.938h-8.216c-0.867 0-1.573-0.706-1.573-1.573s0.706-1.573 1.573-1.573h2.51c0 0 0 0 0 0h0c0 0 0 0 0 0h5.866c0.001 0 0.003 0 0.005 0s0.004-0 0.006-0h2.339c0.864 0 1.567 0.7 1.573 1.562-0 0.009-0 0.017-0 0.026v2.495c0 5.209-4.238 9.447-9.447 9.447z"></path>
</symbol>

<symbol id="icon-logOut" viewBox="0 0 18 18">
<path d="M12.7266 13.7812V15.1875C12.7266 16.7384 11.4649 18 9.91406 18H2.84766C1.2968 18 0.0351562 16.7384 0.0351562 15.1875V2.8125C0.0351562 1.26164 1.2968 0 2.84766 0H9.91406C11.4649 0 12.7266 1.26164 12.7266 2.8125V4.21875C12.7266 4.60712 12.4118 4.92188 12.0234 4.92188C11.6351 4.92188 11.3203 4.60712 11.3203 4.21875V2.8125C11.3203 2.03714 10.6894 1.40625 9.91406 1.40625H2.84766C2.0723 1.40625 1.44141 2.03714 1.44141 2.8125V15.1875C1.44141 15.9629 2.0723 16.5938 2.84766 16.5938H9.91406C10.6894 16.5938 11.3203 15.9629 11.3203 15.1875V13.7812C11.3203 13.3929 11.6351 13.0781 12.0234 13.0781C12.4118 13.0781 12.7266 13.3929 12.7266 13.7812ZM17.5203 7.79219L15.9458 6.21771C15.6712 5.94305 15.226 5.94305 14.9514 6.21771C14.6768 6.49223 14.6768 6.93745 14.9514 7.21198L16.0714 8.33203H7.62891C7.24054 8.33203 6.92578 8.64679 6.92578 9.03516C6.92578 9.42352 7.24054 9.73828 7.62891 9.73828H16.0714L14.9514 10.8583C14.6768 11.1329 14.6768 11.5781 14.9514 11.8526C15.0888 11.9899 15.2687 12.0586 15.4486 12.0586C15.6286 12.0586 15.8085 11.9899 15.9458 11.8526L17.5203 10.2781C18.2057 9.59271 18.2057 8.4776 17.5203 7.79219Z" />
</symbol>

<symbol id="icon-close" viewBox="0 0 16 16">
<path d="M1 1L15 15" stroke="#ffffff"/>
<path d="M1 15L15 0.999999" stroke="#ffffff"/>
</symbol>
<symbol id="icon-google-symb" viewBox="0 0 32 32">
<path fill="#2196f3" style="fill: var(--color1, #2196f3)" d="M31.743 13.038c0.142 0 0.257 0.115 0.257 0.258v2.704c0 1.012-0.094 2.002-0.274 2.962-1.395 7.457-7.964 13.092-15.838 13.038-8.836-0.061-15.907-7.2-15.887-16.036 0.019-8.82 7.176-15.964 16-15.964 4.323 0 8.246 1.715 11.126 4.501 0.104 0.101 0.107 0.266 0.004 0.369l-3.826 3.826c-0.099 0.098-0.258 0.101-0.358 0.005-1.808-1.721-4.253-2.777-6.946-2.777-5.561 0-10.039 4.446-10.076 10.007-0.038 5.597 4.488 10.146 10.076 10.146 4.534 0 8.369-2.995 9.634-7.115h-9.376c-0.142 0-0.258-0.115-0.258-0.258v-5.408c0-0.142 0.115-0.258 0.258-0.258l15.485 0z"></path>
<path fill="#1e88e5" style="fill: var(--color2, #1e88e5)" d="M31.742 13.038h-1.932c0.142 0 0.258 0.115 0.258 0.258v2.704c0 1.012-0.094 2.002-0.274 2.962-1.331 7.114-7.371 12.57-14.761 13.009 0.283 0.017 0.567 0.026 0.854 0.028 7.874 0.054 14.444-5.581 15.839-13.038 0.18-0.96 0.274-1.95 0.274-2.962v-2.704c0-0.142-0.115-0.258-0.258-0.258z"></path>
<path fill="#f44336" style="fill: var(--color3, #f44336)" d="M6.848 11.78l-4.859-3.511c2.726-4.931 7.979-8.269 14.012-8.269 4.323 0 8.246 1.715 11.126 4.501 0.104 0.101 0.107 0.266 0.004 0.369l-3.826 3.826c-0.098 0.098-0.257 0.101-0.358 0.005-1.808-1.721-4.253-2.777-6.946-2.777-4.058 0-7.556 2.399-9.152 5.857z"></path>
<path fill="#e53935" style="fill: var(--color4, #e53935)" d="M5.445 10.767l1.403 1.014c1.457-3.156 4.499-5.429 8.104-5.802 0.027-0.003 0.053-0.006 0.081-0.009-0.317-0.030-0.639-0.046-0.964-0.046-3.666 0-6.861 1.933-8.624 4.843z"></path>
<path fill="#e53935" style="fill: var(--color4, #e53935)" d="M25.194 4.501c0.104 0.101 0.107 0.266 0.004 0.369l-3.105 3.105c0.297 0.226 0.582 0.468 0.852 0.726 0.101 0.096 0.26 0.094 0.359-0.005l3.826-3.826c0.102-0.102 0.1-0.268-0.004-0.369-2.88-2.786-6.803-4.501-11.126-4.501-0.324 0-0.646 0.011-0.966 0.030 3.94 0.235 7.496 1.894 10.16 4.471z"></path>
<path fill="#4caf50" style="fill: var(--color5, #4caf50)" d="M27.737 26.874c-2.922 3.153-7.099 5.126-11.737 5.126-6.264 0-11.687-3.6-14.314-8.844l4.961-3.4c1.489 3.704 5.116 6.32 9.353 6.32 2.659 0 5.078-1.030 6.878-2.713l4.859 3.51z"></path>
<path fill="#43a047" style="fill: var(--color6, #43a047)" d="M6.647 19.756l-1.463 1.003c1.699 3.165 5.040 5.318 8.884 5.318 0.325 0 0.646-0.016 0.964-0.046-3.816-0.364-7.011-2.855-8.385-6.274z"></path>
<path fill="#43a047" style="fill: var(--color6, #43a047)" d="M16 32c4.638 0 8.815-1.974 11.737-5.126l-1.19-0.86c-2.743 3.414-6.859 5.679-11.51 5.957 0.319 0.019 0.64 0.029 0.963 0.029z"></path>
<path fill="#ffc107" style="fill: var(--color7, #ffc107)" d="M5.924 16c0 1.328 0.257 2.595 0.724 3.756l-4.961 3.4c-1.079-2.153-1.686-4.584-1.686-7.156 0-2.804 0.721-5.439 1.988-7.731l4.859 3.511c-0.593 1.283-0.924 2.713-0.924 4.22z"></path>
<path fill="#ffb300" style="fill: var(--color8, #ffb300)" d="M5.184 20.759l1.463-1.003c-0.467-1.161-0.724-2.429-0.724-3.756 0-1.507 0.331-2.937 0.924-4.22l-1.403-1.014c-0.911 1.504-1.44 3.269-1.452 5.164-0.012 1.747 0.421 3.392 1.192 4.829z"></path>

</symbol>
</defs>
</svg>
