<svg aria-hidden="true" style="position: absolute; width: 0; height: 0; overflow: hidden;" version="1.1" xmlns="http://www.w3.org/2000/svg" xmlns:xlink="http://www.w3.org/1999/xlink">
<defs>
<symbol id="icon-menu" viewBox="0 0 44 32">
<path stroke-linejoin="miter" stroke-linecap="butt" stroke-miterlimit="4" stroke-width="2" d="M0 2h44"></path>
<path stroke-linejoin="miter" stroke-linecap="butt" stroke-miterlimit="4" stroke-width="2" d="M0 16h44"></path>
<path stroke-linejoin="miter" stroke-linecap="butt" stroke-miterlimit="4" stroke-width="2" d="M0 30h44"></path>
</symbol>
<symbol id="icon-logo" viewBox="0 0 25 32">
<path d="M23.775 18.133c0-0.009 0-0.018 0-0.028 0-1.901-1.547-3.448-3.448-3.448h-0.941l4.126-9.952c0.727-1.756-0.11-3.777-1.866-4.505s-3.778 0.11-4.505 1.866l-2.579 6.226-2.579-6.226c-0.728-1.756-2.749-2.594-4.505-1.866s-2.594 2.749-1.866 4.505l2.24 5.409c-0.283 0.167-0.539 0.373-0.763 0.611-0.629-0.669-1.521-1.088-2.51-1.088-1.901 0-3.448 1.547-3.448 3.448v7.532c0 6.243 5.079 11.322 11.322 11.322s11.322-5.079 11.322-11.322l-0-2.483zM8.197 1.932c0.801-0.332 1.723 0.050 2.055 0.851l3.445 8.317c0.145 0.35 0.487 0.579 0.866 0.579s0.721-0.229 0.866-0.579l3.445-8.317c0.332-0.801 1.254-1.183 2.055-0.852s1.183 1.254 0.851 2.055l-4.424 10.67h-4.307l0-1.573c-0-1.873-1.501-3.4-3.363-3.446l-2.341-5.651c-0.332-0.801 0.050-1.723 0.851-2.055zM9.601 14.658c-0.566 0-1.101 0.138-1.573 0.381v-1.955c0-0.867 0.706-1.573 1.573-1.573s1.573 0.706 1.573 1.573l-0 1.573h-1.573zM3.007 13.084c0-0.867 0.706-1.573 1.573-1.573s1.573 0.706 1.573 1.573v5.021c-0 0.867-0.706 1.573-1.573 1.573s-1.573-0.706-1.573-1.573v-5.021zM12.454 30.063c-5.019 0-9.136-3.935-9.429-8.882 0.468 0.237 0.996 0.372 1.555 0.372 0.989 0 1.881-0.419 2.51-1.088 0.629 0.669 1.521 1.088 2.511 1.088h8.216c0.518 0 0.938-0.42 0.938-0.937s-0.42-0.938-0.938-0.938h-8.216c-0.867 0-1.573-0.706-1.573-1.573s0.706-1.573 1.573-1.573h2.51c0 0 0 0 0 0h0c0 0 0 0 0 0h5.866c0.001 0 0.003 0 0.005 0s0.004-0 0.006-0h2.339c0.864 0 1.567 0.7 1.573 1.562-0 0.009-0 0.017-0 0.026v2.495c0 5.209-4.238 9.447-9.447 9.447z"></path>
</symbol>
</defs>
</svg>
